<?xml version="1.0" encoding="UTF-8"?>
<svg id="Warstwa_2" data-name="Warstwa 2" xmlns="http://www.w3.org/2000/svg" viewBox="0 0 315.82592948 62">
  <defs>
    <style>
      .cls-1, .cls-2 {
        fill: #fff;
      }

      .cls-2, .cls-3, .cls-4, .cls-5 {
        fill-rule: evenodd;
      }

      .cls-6, .cls-5 {
        fill: #bed600;
      }

      .cls-4 {
        fill: #001d77;
      }
    </style>
  </defs>
  <g id="Warstwa_2-2" data-name="Warstwa 2">
    <g>
      <g>
        <g id="Warstwa_1-2" data-name="Warstwa 1-2">
          <g>
            <path class="cls-5" d="M41.25228835,20.63193156c0,11.39271713-9.23921505,20.62035396-20.63193219,20.62035396S0,32.0246487,0,20.63193156,9.2392156,0,20.62035396,0s20.63192998,9.23921553,20.63193439,20.63193156Z"/>
            <path class="cls-4" d="M41.25228835,41.34491136c0,11.39271713-9.23921505,20.62035616-20.63193219,20.62035616S0,52.73762849,0,41.34491136s9.2392156-20.63193219,20.62035396-20.63193219,20.63192998,9.23921505,20.63193439,20.63193219Z"/>
            <path class="cls-3" d="M38.46199911,30.99421057c-3.56601294,6.13632245-10.22334247,10.26965538-17.84164294,10.26965538s-14.26405177-4.13333293-17.84164294-10.26965318c3.57759117-6.13632024,10.22334247-10.26965318,17.84164294-10.26965318s14.27563,4.13333293,17.84164294,10.26965097Z"/>
            <path d="M121.76544935,42.50270779c2.95238445,2.37348182,6.41419333,3.51970223,10.18861219,3.51970223,5.93949255,0,12.38841836-1.70196218,12.38841836-8.4866456,0-9.88758265-15.7460298-7.80354773-15.7460298-13.87040081,0-2.30401465,2.69766782-3.61232365,5.14061901-3.61232365s4.89748282.98412741,5.95107299,1.51671272l2.74398074-2.76713278c-1.6672297-1.52829095-5.89317963-2.63977557-8.70662533-2.63977557h-.04631292c-7.58357021,0-11.04537909,4.39962669-11.04537909,8.42875777,0,9.59813133,15.6649844,8.1971987,15.51447405,13.92829195-.06946496,2.2808604-3.47338932,3.45023286-6.2405221,3.45023286s-5.65004344-1.14622042-7.44463145-2.18823456c0,0-2.69766782,2.72081986-2.69767666,2.72081545ZM100.42726063,41.86592064c-3.17235977,0-6.56470369-1.37777617-6.56470369-9.92231513v-15.76918736l-5.93949255,1.81774006v14.06722519c0,1.67880572,0,3.35760923.33576203,5.02483672,1.26199388,6.28683502,5.21008397,8.93818992,11.53165147,8.93818992h.63679157c.21998415,0-.0810454,0,.13893875,0,6.43734537,0,10.42016795-2.75555676,11.58954483-9.32026045.26629707-1.44724555.27786867-2.88291287.27786867-4.35331487v-16.16283833l-5.14061901,1.59775922v14.17142815c0,8.54453675-3.68179303,9.92231734-6.86573324,9.92231734l-.00000883-.01158044ZM71.45919761,41.98169851c-.63678716.21997973-1.87562899.43996388-3.03342543.43996388-5.37217477,0-10.62857166-3.63548011-10.62857166-11.63585333,0-7.1783388,4.28384771-10.86013183,9.94547159-10.86013183,2.44295119,0,4.73538761.46311813,6.80783988,1.47040201l2.85975862-2.84817818c-1.11148352-1.06517281-4.51540788-2.67450916-9.52866416-2.67450916-9.01923532,0-16.33650846,5.80056042-16.33650846,15.28291167,0,11.46218651,8.18562047,14.87768247,15.91970103,14.87768247,2.03771979,0,4.30700417-.42838345,5.91634051-.86834733l4.02913108-2.46610765v-11.63585333l-5.93949697,1.7135382v9.21605859l-.01157602-.01157602Z"/>
            <polyline points="164.46498766 0 164.46498766 62 165.25228076 62 165.25228076 0"/>
          </g>
        </g>
        <g>
          <path d="M264.86162214,18.57889061c1.14687507.46673413,2.26278376,1.19127264,3.3469799,2.17473479l-1.32371917,1.43713818c-.98308907-.83198809-1.94192736-1.43713818-2.87427635-1.81545025-.93309517-.37831207-1.99229436-.56746811-3.17722448-.56746811-1.61398228,0-2.91233141.3973396-3.89579357,1.19164572-.98308907.79430612-1.47482015,1.85984782-1.47482015,3.19587892,0,.90772512.18244044,1.65837985.54844058,2.25047183.36525397.59283815.97674656,1.1222512,1.83410469,1.58861224.85698504.46673413,2.08034332.93943768,3.66895556,1.41811064,1.71434318.52978614,3.10148745,1.09688116,4.16031355,1.70203124,1.05919919.60515008,1.87812917,1.38714427,2.45865539,2.34523639.57978004.95846521.86967006,2.16876537.86967006,3.6309005,0,1.46250822-.35331512,2.76085735-1.0588261,3.89542048-.70625716,1.13493622-1.70874684,2.0176644-3.00709597,2.64781143-1.29872222.62977395-2.80525492.9454071-4.51959809.9454071-3.22796456,0-5.98882191-1.08382305-8.28294513-3.25258842l1.32371917-1.43713818c1.03345606.90772512,2.09265525,1.59495475,3.17685139,2.06131579,1.08382305.46673413,2.33217828.69954156,3.74469259.69954156,1.86544415,0,3.38503496-.49173108,4.55728007-1.47519324,1.17261819-.98308907,1.75874075-2.31949326,1.75874075-4.00921257,0-1.0588261-.19549855-1.92886925-.58612255-2.60975637-.39137018-.68051403-1.02114413-1.26700967-1.89118728-1.75836766-.86967006-.49173108-2.09899776-.98943158-3.68761-1.49422077-2.64743834-.80661805-4.53862562-1.73971322-5.67318876-2.79891241-1.13493622-1.0588261-1.70203124-2.49596428-1.70203124-4.31178761,0-1.21030017.32160257-2.30046573.96443463-3.27161595.64283206-.97003096,1.53749907-1.72665511,2.6854934-2.26912627,1.14687507-.54209807,2.46425173-.81333365,3.95212998-.81333365,1.58861224,0,2.95635589.23355361,4.10397714.69991465Z"/>
          <path d="M289.10493434,21.01851848c2.2314443,1.81545025,3.34735299,5.15646073,3.34735299,10.02265834,0,4.86657071-1.1289668,8.27734879-3.38503496,10.23084191-2.25718742,1.95461238-5.01170226,2.93135894-8.26429069,2.93135894h-5.55976975v-25.90840766h5.14377571c3.58016042,0,6.48652241.90772512,8.7179667,2.72354846ZM277.5123182,20.1861573v22.1260331h3.44211755c6.07612469,0,9.11493322-3.75663143,9.11493322-11.27101357,0-2.97501033-.44136409-5.25719471-1.32371917-6.84580695-.88310126-1.58861224-1.99863687-2.65340776-3.34735299-3.19587892-1.34908921-.54209807-2.91867392-.81333365-4.70875413-.81333365h-3.17722448Z"/>
          <path d="M312.06258244,18.50315358c1.09688116.41599405,2.19935866,1.0655417,3.30929793,1.94789678l-1.36140114,1.3994562c-.93346825-.70588407-1.84119338-1.22298519-2.72354846-1.55093027-.88272817-.3271989-1.9038723-.49173108-3.06343239-.49173108-1.46250822,0-2.83062496.39137018-4.10360405,1.17261819-1.27372527.78199419-2.30718133,2.02363382-3.10148745,3.72566506s-1.19127264,3.85176909-1.19127264,6.44846735c0,3.8581116.73088102,6.74544606,2.19338923,8.6612572,1.46213513,1.91655732,3.50442339,2.87464944,6.12723786,2.87464944,2.01691822,0,3.83236847-.45404911,5.44635075-1.36177423v-9.19067025h-5.06803867l-.26489307-1.89118728h7.56474913v12.25447573c-2.42097342,1.41251431-5.01804477,2.11802529-7.79158714,2.11802529-2.14339533,0-4.00921257-.50404301-5.59782481-1.51287521-1.58823915-1.00808602-2.81756685-2.52096123-3.68761-4.53862562-.86967006-2.01691822-1.30469164-4.48788554-1.30469164-7.41327506,0-2.82353627.50404301-5.23816718,1.51287521-7.24277347,1.00808602-2.00460629,2.33180519-3.51113898,3.97115751-4.51997118,1.63897923-1.00808602,3.39100438-1.51287521,5.2575678-1.51287521,1.48750517,0,2.77988488.20818357,3.87676604.62417761Z"/>
        </g>
      </g>
      <g>
        <g>
          <g>
            <g>
              <path class="cls-4" d="M205.96437848,51.66638988c11.37367692,0,20.6499551-9.27640779,20.6499551-20.65000067s-9.27627818-20.64999933-20.6499551-20.64999933c-11.37363264,0-20.6500449,9.27640645-20.6500449,20.64999933s9.27641227,20.65000067,20.6500449,20.65000067Z"/>
              <path class="cls-1" d="M205.96437522,10.63484351c11.23840332,0,20.38150024,9.14312744,20.38150024,20.38153076,0,11.23846436-9.14309692,20.3815918-20.38150024,20.3815918-11.23843384,0-20.3815918-9.14312744-20.3815918-20.3815918,0-11.23840332,9.14315796-20.38153076,20.3815918-20.38153076M205.96437522,10.35139625c-11.38189697,0-20.66503906,9.28314209-20.66503906,20.66497803,0,11.38189697,9.28314209,20.66503906,20.66503906,20.66503906,11.38192749,0,20.66494751-9.28314209,20.66494751-20.66503906,0-11.38183594-9.28302002-20.66497803-20.66494751-20.66497803h0Z"/>
            </g>
            <path class="cls-1" d="M205.96437522,10.63484351c11.23840332,0,20.38150024,9.14312744,20.38150024,20.38153076,0,11.23846436-9.14309692,20.3815918-20.38150024,20.3815918-11.23843384,0-20.3815918-9.14312744-20.3815918-20.3815918,0-11.23840332,9.14315796-20.38153076,20.3815918-20.38153076M205.96437522,10.35139625c-11.38189697,0-20.66503906,9.28314209-20.66503906,20.66497803,0,11.38189697,9.28314209,20.66503906,20.66503906,20.66503906,11.38192749,0,20.66494751-9.28314209,20.66494751-20.66503906,0-11.38183594-9.28302002-20.66497803-20.66494751-20.66497803h0Z"/>
          </g>
          <path class="cls-1" d="M205.96437025,11.00118217c11.03640904,0,20.01516669,8.97878097,20.01516669,20.01521333,0,11.03640904-8.97875765,20.01519001-20.01516669,20.01519001-11.03643236,0-20.01523665-8.97878097-20.01523665-20.01519001,0-11.03643236,8.97880429-20.01521333,20.01523665-20.01521333M205.96437025,10.3513877c-11.38189655,0-20.66503111,9.28315788-20.66503111,20.6650078s9.28313457,20.66498448,20.66503111,20.66498448c11.38194318,0,20.66496116-9.28313457,20.66496116-20.66498448s-9.28301797-20.6650078-20.66496116-20.6650078h0Z"/>
        </g>
        <g>
          <path class="cls-2" d="M226.40551773,51.6813877c11.38193747,0,20.66495288-9.28314512,20.66495288-20.66499849s-9.28301542-20.66499715-20.66495288-20.66499715c-11.38189316,0-20.66504276,9.28314379-20.66504276,20.66499715s9.2831496,20.66499849,20.66504276,20.66499849Z"/>
          <g>
            <path class="cls-6" d="M216.66677807,25.30100842c.49860217-.84648588,1.10299648-1.62400163,1.79575143-2.3104052l-5.8875693-6.45756415c-1.48111987,1.41614902-2.74511451,3.05767585-3.73771159,4.86663426l7.82952946,3.90133508Z"/>
            <path class="cls-6" d="M231.09960825,20.73899224c.89142509.40854439,1.71983435.93024879,2.46779118,1.54768222l5.90404976-6.44833044c-1.5546951-1.34058338-3.31813986-2.44749747-5.23249479-3.26458624l-3.13934615,8.16523446Z"/>
            <path class="cls-6" d="M244.61944558,22.6805203l-7.8250035,3.90133508c.37444941.87230257.63943713,1.79887672.78384743,2.76587189l8.7043759-.82255362c-.25670307-2.06015291-.82793859-4.02561323-1.66321983-5.84465335"/>
            <path class="cls-6" d="M236.23329087,25.45100904l7.82405669-3.90133508c-.96961201-1.80076115-2.20505955-3.43767112-3.65585083-4.85561035l-5.90405449,6.44644601c.67240751.69196263,1.25664279,1.46674596,1.73584863,2.31049942"/>
            <path class="cls-6" d="M215.11123086,31.01318635c0-.1766653.00640568-.35238838.01375336-.52726347l-8.70625487-.77930596c-.02760092.43153443-.04408612.8667435-.04408612,1.30656942,0,1.67007594.20696388,3.29219314.59327858,4.84355l8.40820257-2.41348351c-.17201122-.7829806-.26489352-1.59554674-.26489352-2.43006649"/>
            <path class="cls-6" d="M235.13773194,38.1709104c-.61918866.75264128-1.33398667,1.42434629-2.12329305,1.99664763l4.59691519,7.44480752c1.70560528-1.15568313,3.22535176-2.56809155,4.50130578-4.18201148l-6.97492793-5.25944366Z"/>
            <path class="cls-6" d="M237.69971473,31.01318635c0,.82443805-.08836064,1.62767627-.25942985,2.40340181l8.40905542,2.41442572c.38273407-1.54306537.58696207-3.1569853.58696207-4.81782753,0-.41316124-.01290555-.82255362-.03862245-1.23025002l-8.70625487.82264784c.00555787.13615006.0082897.2705099.0082897.40760217"/>
            <path class="cls-6" d="M217.81583889,38.33739978l-6.95929531,5.2898772c1.29432323,1.59366231,2.82697527,2.98307127,4.54444989,4.11759225l4.5959779-7.43654429c-.80956433-.56033521-1.54367357-1.22469095-2.18113247-1.97092516"/>
            <path class="cls-6" d="M215.25290933,29.22910241c.15543183-.98367237.44057859-1.92400286.83433922-2.80459692l-7.82217747-3.89766044c-.86382417,1.83929774-1.45719695,3.83048052-1.72670632,5.92012476l8.71454457.7821326Z"/>
            <path class="cls-6" d="M236.54245411,48.28590788l-4.59004323-7.43467871c-.83528123.47110746-1.73226419.84007882-2.67973894,1.08854089l1.62091848,8.60137633c2.01420811-.46374876,3.91471548-1.23297302,5.64886369-2.25523851"/>
            <path class="cls-6" d="M237.10634195,34.63298762c-.30539999.89529261-.71658783,1.73904607-1.22169418,2.51750403l6.98049056,5.26679294c1.13333354-1.63040869,2.0303165-3.43578669,2.6420585-5.36892904l-8.40085488-2.41536794Z"/>
            <path class="cls-6" d="M228.03534038,42.19096457c-.53176526.07726162-1.07539986.11956707-1.62920818.11956707-.44519444,0-.88407741-.0276069-1.31457647-.07820384l-1.61903446,8.60050007c.95764847.14078575,1.93734.21439158,2.93361093.21439158,1.1048848,0,2.19036418-.09016997,3.24739482-.26223726l-1.61818665-8.59401763Z"/>
            <path class="cls-6" d="M227.1282779,19.73788889c.96961201.06256307,1.90700725.24751986,2.79475849.5410198l3.14019396-8.16335003c-1.8688558-.65973888-3.86139765-1.05170029-5.93495246-1.12349707v8.74582729Z"/>
            <path class="cls-6" d="M223.84687648,42.01703169c-.97969153-.22820445-1.90973908-.58332525-2.77262123-1.04896787l-4.59880393,7.4411423c1.76900262,1.01214611,3.70370499,1.76204554,5.75323852,2.1981874l1.61818665-8.59036183Z"/>
            <path class="cls-6" d="M223.01159525,20.23754546c.90800449-.28615067,1.86376894-.46102576,2.85363419-.50700585v-8.7449793c-2.10209774.05521379-4.12129851.43803571-6.0154944,1.09589017l3.16186022,8.15609498Z"/>
            <path class="cls-6" d="M217.04857086,37.33262179c-.55380832-.82076341-1.00634616-1.71784624-1.33200368-2.67202728l-8.4027389,2.41254129c.63661109,2.00314891,1.57956419,3.87193798,2.77544727,5.54842098l6.95929531-5.28893499Z"/>
            <path class="cls-6" d="M219.40821444,22.1513724c.73872509-.58426747,1.55102126-1.07742276,2.4212511-1.46570952l-3.15902983-8.15242034c-1.88223671.78948188-3.61629072,1.85964958-5.15440642,3.15604308l5.89218515,6.46208678Z"/>
          </g>
        </g>
      </g>
    </g>
  </g>
</svg>