<?xml version="1.0" encoding="UTF-8"?>
<svg id="Warstwa_2" data-name="Warstwa 2" xmlns="http://www.w3.org/2000/svg" viewBox="0 0 317.9861369834 62.0057868958">
  <defs>
    <style>
      .cls-1, .cls-2 {
        fill: #fff;
      }

      .cls-2 {
        fill-rule: evenodd;
      }
    </style>
  </defs>
  <g id="Warstwa_2-2" data-name="Warstwa 2">
    <g>
      <g id="Warstwa_2-2" data-name="Warstwa 2-2">
        <g id="Warstwa_1-2" data-name="Warstwa 1-2">
          <g>
            <polyline class="cls-1" points="164.4649810791 .0057868958 164.4649810791 62.0057868958 165.2522735596 62.0057868958 165.2522735596 .0057868958"/>
            <path class="cls-2" d="M41.2740394097,41.363003967c0,11.3956892942-9.2413836722,20.636996033-20.6370197049,20.636996033C9.2414657839,62,0,52.7586991792,0,41.363006926c0-3.777370888,1.0165045533-7.3170321707,2.7891831198-10.3628309245,3.5752197073,6.1428854964,10.2296528124,10.2740260365,17.8478365851,10.2740260365,7.6182651446,0,14.2733765957-4.1311405401,17.8485959332-10.2740260365,1.7726771795,3.0457987538,2.7884237717,6.5854570775,2.7884237717,10.3628309245v-.000002959ZM41.2740394097,20.6371823331c0,3.7770720311-1.0156637408,7.316706683-2.7881781764,10.3624492161-.2370319991-.4072591216-.4871367689-.8058365978-.7506960178-1.194815145,1.4674850913-2.7304070638,2.300393391-5.8515798983,2.300393391-9.1677982945C40.0355586066,9.9251371053,31.3487409244,1.2383179437,20.6370211843,1.2383179437c-10.7118277428.0000019418-19.3987012757,8.6868206411-19.3987012757,19.3987016456,0,3.3162183962.8334213128,6.4373927102,2.3009345144,9.167799774-.2635581393.3889755882-.5132836049.7875560234-.7503152341,1.194815145C1.0164234588,27.9538919751.0000001849,24.4142573232.0000001849,20.6371852921c-.0000001849-11.3958009957,9.2413028551-20.6371852921,20.6370195199-20.6371852921,11.3956360326,0,20.6370197049,9.2413842964,20.6370197049,20.6371823331h0ZM3.5393354251,29.8050619996c3.2725494092,6.0891533906,9.7019950407,10.2307391277,17.0976842798,10.2307391277,7.3955279747,0,13.8254315082-4.1415857372,17.0980626592-10.2307391277-3.7108914992-5.4780087565-9.984782847-9.0790777374-17.0980641387-9.0790777374-7.1133611842,0-13.386820521,3.6012317248-17.0976828003,9.0790777374Z"/>
            <path class="cls-1" d="M121.8325064382,42.5244299891c2.9554759094,2.3756875794,6.4170201375,3.5139477522,10.1930091822,3.5139477522,5.9416896961,0,12.4023488609-1.7052213274,12.4023488609-8.4896579297,0-9.8862991375-15.7641636493-7.8088618809-15.7641636493-13.8785673797,0-2.3065495476,2.7065073876-3.6096130338,5.1453928477-3.6096130338,2.3655146084,0,4.8968030754.9833590839,5.955596899,1.5217868006l2.7432105674-2.7632532139c-1.6656449788-1.5281604421-5.893730559-2.6388651199-8.7067256951-2.6388651199h-.0458878516c-7.5945045405,0-11.0532081484,4.405223399-11.0532081484,8.4306381277,0,9.5987366483,15.6772288363,8.2020421787,15.5172309053,13.9368282034-.0635825481,2.2841190047-3.4786826364,3.4502350091-6.2397180954,3.4502350091-2.6990507597,0-5.650810191-1.1401332068-7.4509348628-2.1892955527l-2.6961509599,2.7158133777v.000002959ZM100.4841806486,41.886648623c-3.1769140873,0-6.5781602344-1.3812338025-6.5781602344-9.9296422669v-15.7766372267l-5.9398373751,1.8215003386v14.07060218c0,1.6886510431.0112026958,3.3650400759.3429752954,5.0250748298,1.2616200216,6.2938289506,5.2134493726,8.9408312636,11.5306276291,8.9408312636.2121351469,0,.4284957163-.0036898472.6443946849-.0093562927.2158752968.0056694044-.085360636.0093562927.127614861.0093562927,6.4443611066,0,10.4252653886-2.7540315548,11.602832643-9.3237853289.2590290515-1.4535157498.2708057893-2.893363974.2708057893-4.3666279519v-5.218979705h.0005444522v-10.9486141466l-5.1411082457,1.5915210668v9.3570930799h-.0004616008v4.8280245596c0,8.5484084645-3.6833374836,9.9296422669-6.8602160631,9.9296422669h0l-.0000118359-.000002959ZM71.4996227918,42.000078137c-.6369913186.2130287587-1.8762888001.4390740675-3.0389605525.4390740675-5.3861945865,0-10.6410637519-3.6369791542-10.6410637519-11.6487234536,0-7.1823912133,4.2875906548-10.8657523687,9.9506332664-10.8657523687,2.4403471959,0,4.7413619726.4613152357,6.8132688969,1.4741309589l2.8558234031-2.8552020175c-1.1050604247-1.059250986-4.5123073818-2.6707081761-9.5310085701-2.6707081761-9.0243957992,0-16.3450349658,5.8013201547-16.3450349658,15.2859482031,0,11.4647725849,8.1957513887,14.8795323906,15.9308607095,14.8795323906,2.0366181367,0,4.3068772821-.4314783675,5.9120111333-.865101995l4.0331716931-2.4676349034v-11.644518744l-5.93970718,1.7158558992s0,9.2231030979.000005918,9.2231001389Z"/>
          </g>
        </g>
      </g>
      <g>
        <g>
          <g>
            <g>
              <path class="cls-2" d="M205.9794940202,51.6166801527c-11.3648973311,0-20.6109787356-9.2460814044-20.6109787356-20.6109787356,0-11.3647107828,9.2460814044-20.6107921872,20.6109787356-20.6107921872,11.3645242345,0,20.6106056389,9.2460814044,20.6106056389,20.6107921872,0,11.3648973311-9.2460814044,20.6109787356-20.6106056389,20.6109787356Z"/>
              <path class="cls-1" d="M205.9793774275,10.449078201c11.3349796428,0,20.5566698531,9.2217135289,20.5566698531,20.5567164902s-9.2216902103,20.5566931717-20.5566698531,20.5566931717c-11.3350262799,0-20.5567398088-9.2216902103-20.5567398088-20.5566931717s9.2217135289-20.5567164902,20.5567398088-20.5567164902M205.9793774275,10.3407868958c-11.3818965477,0-20.665031114,9.2831578849-20.665031114,20.6650077955s9.2831345664,20.664984477,20.665031114,20.664984477c11.3819431848,0,20.6649611584-9.2831345664,20.6649611584-20.664984477s-9.2830179737-20.6650077955-20.6649611584-20.6650077955h0Z"/>
            </g>
            <path class="cls-1" d="M205.9793774275,10.9905813646c11.0364090414,0,20.0151666896,8.9787809668,20.0151666896,20.0152133267,0,11.0364090414-8.9787576482,20.0151900082-20.0151666896,20.0151900082-11.0364323599,0-20.0152366452-8.9787809668-20.0152366452-20.0151900082,0-11.0364323599,8.9788042853-20.0152133267,20.0152366452-20.0152133267M205.9793774275,10.3407868958c-11.3818965477,0-20.665031114,9.2831578849-20.665031114,20.6650077955s9.2831345664,20.664984477,20.665031114,20.664984477c11.3819431848,0,20.6649611584-9.2831345664,20.6649611584-20.664984477s-9.2830179737-20.6650077955-20.6649611584-20.6650077955h0Z"/>
          </g>
          <g>
            <path class="cls-2" d="M226.4205249142,51.6707868958c11.3819374662,0,20.6649528828-9.2831451169,20.6649528828-20.6649984859s-9.2830154166-20.664997154-20.6649528828-20.664997154c-11.3818931572,0-20.6650427571,9.2831437851-20.6650427571,20.664997154s9.2831495999,20.6649984859,20.6650427571,20.6649984859Z"/>
            <g>
              <path d="M216.6817852527,25.2904076161c.4986021669-.8464858806,1.1029964807-1.6240016294,1.7957514346-2.3104051958l-5.8875692977-6.4575641492c-1.4811198721,1.4161490189-2.7451145105,3.0576758458-3.7377115935,4.8666342633l7.8295294567,3.9013350817Z"/>
              <path d="M231.1146154279,20.7283914352c.8914250922.4085443876,1.7198343526.9302487867,2.467791175,1.5476822212l5.904049763-6.448330443c-1.554695099-1.3405833827-3.3181398551-2.4474974661-5.2324947874-3.2645862414l-3.1393461507,8.1652344632Z"/>
              <path d="M244.6344527588,22.6699194913l-7.8250035017,3.9013350817c.3744494074.8723025693.6394371263,1.7988767179.783847426,2.7658718863l8.7043759019-.8225536218c-.2567030713-2.0601529141-.8279385949-4.0256132291-1.6632198263-5.8446533462"/>
              <path d="M236.2482980483,25.4404082307l7.8240566945-3.9013350817c-.9696120125-1.8007611477-2.2050595539-3.4376711215-3.65585083-4.8556103488l-5.9040544918,6.4464460132c.6724075144.6919626344,1.2566427909,1.4667459599,1.7358486273,2.3104994173"/>
              <path d="M215.1262380419,31.0025855451c0-.1766652968.0064056754-.3523883786.0137533619-.5272634671l-8.7062548742-.7793059571c-.0276009249.4315344316-.0440861189.8667435013-.0440861189,1.3065694242,0,1.6700759388.206963883,3.2921931384.593278583,4.8435499978l8.408202566-2.4134835077c-.1720112246-.7829805953-.2648935178-1.595546739-.2648935178-2.4300664902"/>
              <path d="M235.1527391257,38.1603095984c-.6191886563.752641275-1.3339866696,1.4243462887-2.1232930452,1.9966476288l4.5969151918,7.4448075161c1.7056052753-1.1556831275,3.225351763-2.5680915533,4.5013057812-4.1820114831l-6.9749279278-5.2594436618Z"/>
              <path d="M237.7147219123,31.0025855451c0,.8244380516-.08836064,1.6276762676-.2594298535,2.4034018081l8.409055415,2.4144257226c.3827340659-1.5430653681.5869620697-3.156985298.5869620697-4.8178275306,0-.4131612407-.0129055519-.8225536218-.0386224546-1.230250016l-8.7062548742.8226478433c.0055578654.1361500554.0082896976.2705099024.0082896976.4076021727"/>
              <path d="M217.8308460756,38.3267989741l-6.9592953122,5.2898772036c1.2943232344,1.5936623091,2.826975274,2.9830712688,4.544449889,4.1175922493l4.5959778955-7.4365442913c-.8095643287-.5603352106-1.5436735693-1.224690948-2.1811324723-1.9709251616"/>
              <path d="M215.2679165095,29.2185016014c.1554318295-.9836723724.4405785857-1.9240028587.8343392203-2.8045969193l-7.8221774684-3.8976604435c-.8638241674,1.8392977378-1.4571969515,3.83048052-1.7267063236,5.920124761l8.7145445717.7821326019Z"/>
              <path d="M236.5574612912,48.2753070761l-4.5900432256-7.4346787058c-.8352812314.4711074581-1.7322641891.8400788192-2.679738941,1.0885408926l1.6209184785,8.6013763257c2.0142081076-.4637487596,3.9147154769-1.2329730171,5.6488636881-2.2552385125"/>
              <path d="M237.1213491282,34.6223868099c-.3053999946.8952926133-.7165878344,1.7390460707-1.2216941795,2.5175040344l6.9804905616,5.2667929382c1.1333335395-1.6304086909,2.0303164972-3.4357866917,2.6420584975-5.3689290351l-8.4008548796-2.4153679375Z"/>
              <path d="M228.0503475609,42.1803637596c-.531765259.0772616231-1.0753998576.1195670729-1.6292081761.1195670729-.44519444,0-.8840774057-.027606897-1.3145764728-.078203838l-1.6190344563,8.6005000658c.9576484717.1407857528,1.9373400028.214391582,2.9336109291.214391582,1.1048848047,0,2.190364181-.0901699675,3.2473948224-.2622372555l-1.6181866463-8.5940176272Z"/>
              <path d="M227.1432850847,19.7272880868c.9696120125.0625630704,1.9070072458.2475198585,2.7947584948.5410198048l3.1401939606-8.1633500333c-1.8688557968-.6597388843-3.8613976493-1.0517002894-5.9349524554-1.123497066v8.7458272945Z"/>
              <path d="M223.861883662,42.0064308861c-.9796915311-.2282044527-1.909739078-.5833252546-2.7726212342-1.0489678661l-4.5988039287,7.4411423001c1.7690026215,1.0121461072,3.7037049933,1.7620455368,5.7532385166,2.1981873993l1.6181866463-8.5903618333Z"/>
              <path d="M223.0266024306,20.2269446568c.9080044874-.28615067,1.8637689369-.4610257585,2.8536341878-.5070058464v-8.744979301c-2.1020977421.0552137941-4.1212985084.4380357145-6.0154944034,1.0958901689l3.1618602157,8.1560949785Z"/>
              <path d="M217.0635780447,37.3220209875c-.5538083184-.8207634134-1.0063461589-1.7178462351-1.3320036779-2.6720272807l-8.4027389017,2.4125412927c.636611093,2.0031489117,1.5795641918,3.8719379763,2.7754472675,5.5484209766l6.9592953121-5.2889349887Z"/>
              <path d="M219.4232216181,22.1407715944c.7387250949-.5842674695,1.5510212558-1.0774227566,2.4212510986-1.4657095235l-3.15902983-8.1524203403c-1.8822367066.7894818782-3.6162907167,1.85964958-5.1544064206,3.1560430831l5.8921851521,6.4620867808Z"/>
            </g>
          </g>
        </g>
        <g>
          <path class="cls-1" d="M259.4406124836,19.2465914525c.663035602.5113680622.9949242283,1.2938094045.9949242283,2.3465823766,0,1.1139591434-.3467216375,1.9316288874-1.0405357378,2.4530092322-.6938141003.52175117-1.643126819.7824413424-2.8479381562.7824413424h-1.4884926769v4.0553452703h-.9111177148v-10.4046157273h2.4452219013c1.2355898355,0,2.1849025542.2558694437,2.8479381562.7672375059ZM258.7189864873,23.5222069396c.5065473335-.3745335336.759450175-1.0123530165.759450175-1.913829274,0-.850673194-.2454863359-1.4603099556-.7364590076-1.8303935858-.491343497-.3693419796-1.2125986681-.5543837947-2.1645071637-.5543837947h-1.51890035v4.8607777801h1.4884926769c.9418962131,0,1.6657471611-.1872667668,2.1719236694-.5621711256Z"/>
          <path class="cls-1" d="M263.0250096474,28.6714867881c-.2480821128-.2532736668-.3719377566-.6278072003-.3719377566-1.123971426v-9.842815427l.8807100418-.1060560303v9.9184637843c0,.5161887908.2128537111.7746540115.6381903082.7746540115.2124828859,0,.394928924-.035599227.5469672891-.1064268556l.2428905589.6530233194c-.2836813398.1416552572-.5873872447.2128537112-.9111177148.2128537112-.4357197049,0-.7772497885-.126822246-1.0257027266-.3797250875Z"/>
          <path class="cls-1" d="M272.1384117471,28.0180926434c.1064268556.1824460381.2758940089.3189097414.5087722852.4101327605l-.1972790494.6229864717c-.364521251-.0812107365-.6456068138-.2228659937-.8432566884-.425336597-.1972790494-.2024706033-.3263262471-.5013557796-.3871415931-.8962847036-.5770041368.8810808671-1.4024612118,1.3216213006-2.4756295743,1.3216213006-.759450175,0-1.3594454792-.2150786628-1.7999859128-.6456068138s-.6608106503-1.0049365108-.6608106503-1.7239667302c0-.820265521.2910978454-1.45289345.8736643614-1.8986254374.5821956908-.4453611622,1.3898531523-.6682271559,2.4222307339-.6682271559h1.51890035v-.7746540115c0-.6381903082-.1416552572-1.1013510838-.4249657717-1.3898531523-.2836813398-.2885020684-.7546294463-.4331239279-1.4128443197-.4331239279-.6074118099,0-1.3264420292.1520383651-2.1567198329.45574427l-.2276867224-.6682271559c.8907223244-.3545089684,1.7261916819-.5317634526,2.5060372473-.5317634526,1.7317540611,0,2.5972602664.8406609115,2.5972602664,2.5216119091v3.8276585479c0,.4153243144.0533988404.7138386654.1594548707.8959138783ZM271.0978760093,26.909325054v-2.1567198328h-1.3820658214c-.8102532384,0-1.4276773309.157229919-1.8530139279.4709481066s-.6378194829.7846662941-.6378194829,1.4124734944c0,.5465964638.1468468112.9671123322.4405404335,1.2608059546s.7034555576.4401696082,1.2303982815.4401696082c.9719330608,0,1.7057962915-.4757688352,2.2019605171-1.4276773309Z"/>
          <path class="cls-1" d="M278.7988046147,28.549856096c-.5061765082.334113578-1.0631560799.5013557796-1.6705678898.5013557796-.6077826352,0-1.0835514704-.1798502612-1.4276773309-.5395507835-.3444966858-.3589588718-.5165596161-.8781142648-.5165596161-1.5567245286v-5.3009473883h-1.3368251371v-.7138386654h1.3368251371v-1.8986254374l.8807100418-.1064268556v2.005052293h2.0506638026l-.1060560303.7138386654h-1.9446077723v5.2553358788c0,.4661273779.096414573.8128490154.2885020684,1.0405357378.1924583207.2276867224.4865227683.3419009089.8810808671.3419009089.4153243144,0,.820265521-.1216306921,1.215194445-.364521251l.3493174145.6226156464Z"/>
          <path class="cls-1" d="M281.6771504439,18.6465961483c-.2280575477.2124828859-.3419009089.552158843-.3419009089,1.0175445704v1.2760097911h2.0962753121l-.1216306921.7138386654h-1.97464462v7.2299804988h-.8807100418v-7.2299804988h-1.3824366466v-.7138386654h1.3824366466v-1.3064174641c0-.627436375.1946832724-1.123971426.5844206425-1.4884926769.3901081954-.364521251.9292881536-.5465964638,1.6175398746-.5465964638.6177949177,0,1.2355898355.1416552572,1.8533847532.425336597l-.3040767302.6530233194c-.5265718987-.2328782763-1.027556853-.3493174145-1.5033256882-.3493174145-.45574427,0-.7976451789.1064268556-1.0253319013.3189097414Z"/>
          <path class="cls-1" d="M290.289196764,21.8590555554c.5922079734.7242217733.8884973727,1.7339790128.8884973727,3.0303841943,0,1.2860220736-.3014809533,2.3009708671-.9037012092,3.0452172055-.6025910812.7442463385-1.4254523792,1.1165549203-2.4682130687,1.1165549203-1.0531437973,0-1.87563427-.3671170279-2.4682130687-1.1013510838s-.8884973727-1.7439912954-.8884973727-3.0303841943c0-.8402900862.1364637033-1.5741533168.4101327605-2.2023313424.2732982319-.6278072003.663035602-1.1087675894,1.1695829355-1.4428811674.5061765082-.334113578,1.1035760355-.5013557796,1.7921985819-.5013557796,1.0527729721,0,1.8760050953.3622962993,2.4682130687,1.0861472473ZM286.0287851135,22.3830316771c-.425336597.5773749621-.6378194829,1.4228566022-.6378194829,2.5364449203,0,1.1039468608.2098871089,1.944236947.6304029773,2.5216119091.4197742178.5770041368,1.0145779681.8658770306,1.784411251.8658770306.7694624576,0,1.3694577618-.2888728937,1.7999859128-.8658770306.4301573257-.5773749621.6452359885-1.4276773309.6452359885-2.5516487568,0-1.1035760355-.2098871089-1.94164117-.630032152-2.5138245782s-1.0201403473-.8584605249-1.7999859128-.8584605249c-.7694624576,0-1.3672328101.2888728937-1.7921985819.8658770306Z"/>
          <path class="cls-1" d="M297.633020624,20.8641313272l-.1672422016.8354693575c-.2224951685-.060815346-.4553734448-.0912230191-.6986348289-.0912230191-.5465964638,0-.9849119457.1976498746-1.3134631444.5925787986-.3292928493.394928924-.5999953043,1.0123530165-.8128490154,1.8530139279v4.8299992818h-.8810808671v-7.9438191643h.759450175l.0760191826,1.7769947454c.2124828859-.6578440481.5035807313-1.1465917681.8732935362-1.4655015095.3693419796-.3192805667.8276820266-.4787354374,1.3746493157-.4787354374.3137181875,0,.5773749621.030407673.789857848.0912230191Z"/>
          <path class="cls-1" d="M308.6828723399,21.4263024528c.3697128049.4353488796.5543837947,1.027556853.5543837947,1.7769947454v5.6806724758h-.8810808671v-5.5590417837c0-.6278072003-.1190349151-1.090967976-.3567339201-1.3898531523-.2380698302-.298514351-.5695876312-.4483277644-.9949242283-.4483277644-.4457319875,0-.8458524654.1420260825-1.1999906085.425336597-.3545089684.2836813398-.6986348289.6889933716-1.0327484069,1.215194445v5.7566916584h-.8810808671v-5.5590417837c0-.6278072003-.1194057404-1.090967976-.3567339201-1.3898531523-.2380698302-.298514351-.5695876312-.4483277644-.9952950535-.4483277644-.4553734448,0-.8603146513.1420260825-1.2148236197.425336597-.3545089684.2836813398-.6938141003.6889933716-1.0175445704,1.215194445v5.7566916584h-.8810808671v-7.9438191643h.759450175l.0756483573,1.3364543118c.3137181875-.4653857273.6763853121-.8325027553,1.0861472473-1.1009802586.4101327605-.268106678.8632812536-.4027162549,1.3594454792-.4027162549.5061765082,0,.9289173283.1368345286,1.2685932855.4101327605.3389343066.2736690572.5695876312.6634064273.690847498,1.1695829355.6986348289-1.0527729721,1.5341041865-1.579715696,2.5064080726-1.579715696.6378194829,0,1.1414002142.2180452651,1.5111130191.6533941447Z"/>
          <path class="cls-1" d="M317.4773646982,28.0180926434c.1064268556.1824460381.2755231836.3189097414.5087722852.4101327605l-.1976498746.6229864717c-.3641504257-.0812107365-.6452359885-.2228659937-.8428858631-.425336597-.1972790494-.2024706033-.3266970723-.5013557796-.3871415931-.8962847036-.5773749621.8810808671-1.4028320371,1.3216213006-2.4760003996,1.3216213006-.759450175,0-1.3594454792-.2150786628-1.7999859128-.6456068138s-.660439825-1.0049365108-.660439825-1.7239667302c0-.820265521.2910978454-1.45289345.8732935362-1.8986254374.5821956908-.4453611622,1.3898531523-.6682271559,2.4226015591-.6682271559h1.51890035v-.7746540115c0-.6381903082-.1420260825-1.1013510838-.425336597-1.3898531523s-.754258621-.4331239279-1.4124734944-.4331239279c-.6077826352,0-1.3264420292.1520383651-2.1570906581.45574427l-.2276867224-.6682271559c.8910931496-.3545089684,1.7265625072-.5317634526,2.5060372473-.5317634526,1.7317540611,0,2.5976310917.8406609115,2.5976310917,2.5216119091v3.8276585479c0,.4153243144.0530280151.7138386654.1594548707.8959138783ZM316.4368289604,26.909325054v-2.1567198328h-1.3820658214c-.8102532384,0-1.4276773309.157229919-1.8533847532.4709481066-.4249657717.3137181875-.6378194829.7846662941-.6378194829,1.4124734944,0,.5465964638.1468468112.9671123322.4405404335,1.2608059546s.7038263829.4401696082,1.2303982815.4401696082c.9723038861,0,1.7061671167-.4757688352,2.2023313424-1.4276773309Z"/>
          <path class="cls-1" d="M258.1649735178,33.7825716327c.4605649987.1872667668.9085219378.4783646122,1.3438708174.8732935362l-.5313926273.5770041368c-.394928924-.334113578-.7798455654-.5770041368-1.154379099-.729042502-.3745335336-.1516675398-.8002409559-.2276867224-1.2760097911-.2276867224-.6478317655,0-1.1692121102.1594548707-1.5645118595.4783646122-.3945580987.3189097414-.5922079734.7468421154-.5922079734,1.2834262967,0,.364521251.0730525803.6660022042.2202702168.9037012092.1464759859.2380698302.392333147.4509235414.7368298329.6381903082.3441258605.1872667668.8350985323.3771293105,1.4729180151.5695876312.6886225464.2124828859,1.245602118.4401696082,1.6709387151.6834309924.425336597.2428905589.754258621.5569795717.9871368974.9415253878.2328782763.3849166414.3493174145.8710685845.3493174145,1.4580850039,0,.5873872447-.1416552572,1.1091384147-.4249657717,1.5645118595-.2836813398.45574427-.6860267694.8102532384-1.2074071141,1.0635269052-.5221219953.2529028415-1.1265672029.3797250875-1.8155605746.3797250875-1.2960343562,0-2.4048019457-.4353488796-3.3263027683-1.3064174641l.5317634526-.5770041368c.4153243144.364521251.8402900862.6404152599,1.2756389658.8276820266s.9367046592.2810855628,1.5040673387.2810855628c.7490670671,0,1.3594454792-.1976498746,1.8303935858-.5925787986.4705772813-.394928924.7060513345-.9315131052.7060513345-1.610123369,0-.4249657717-.0786149595-.7746540115-.2354740533-1.0479522434s-.4101327605-.5087722852-.759450175-.7060513345c-.3493174145-.1976498746-.8428858631-.397524701-1.480705346-.5999953043-1.0635269052-.3241012954-1.8229770802-.6990056542-2.2783505249-1.123971426-.45574427-.425336597-.6838018177-1.0027115592-.6838018177-1.7317540611,0-.4861519431.1290471977-.9237257744.3875124184-1.3138339697.2580943954-.3897373701.6174240925-.693443275,1.0783599164-.9114885401.4605649987-.2173036145.9897326743-.3263262471,1.5875030269-.3263262471.6378194829,0,1.1866408984.093818796,1.6479475477.2810855628Z"/>
          <path class="cls-1" d="M267.9006204387,34.7622920244c.8962847036.729042502,1.344612468,2.0706883677,1.344612468,4.0249375973s-.4535193184,3.3240778167-1.3594454792,4.1087441107c-.9062969862.7846662941-2.0128396239,1.1769994411-3.3188862627,1.1769994411h-2.2331098407v-10.4046157273h2.0658676391c1.4376896135,0,2.6050475973.364521251,3.5009614756,1.0939345782ZM263.2452798641,34.4278076212v8.8857153774h1.3824366466c2.4400303473,0,3.6604163463-1.5085172421,3.6604163463-4.5262933768,0-1.1947990546-.1772544842-2.1114791486-.5313926273-2.7492986315-.3548797937-.6378194829-.8028367328-1.0653810316-1.344612468-1.2834262967-.5417757352-.2176744398-1.1718078872-.3266970723-1.8908381066-.3266970723h-1.2760097911Z"/>
          <path class="cls-1" d="M277.120449394,33.7521639597c.4401696082.1668713763.8833058187.427932374,1.3290378062.7820705171l-.5469672891.5621711256c-.3745335336-.2836813398-.7394256098-.491343497-1.0935637529-.6229864717-.3545089684-.1312721494-.7646417289-.1972790494-1.2300274563-.1972790494-.5873872447,0-1.1369503108.1568590938-1.6479475477.4709481066-.5117388874.3137181875-.9270632019.8124781901-1.2459729433,1.4959091826s-.4783646122,1.5470830713-.4783646122,2.5898437608c0,1.549308023.2936936224,2.7088786759.8810808671,3.4783411334s1.4072819405,1.154379099,2.4607965631,1.154379099c.8098824132,0,1.5389249151-.1824460381,2.1871275059-.5469672891v-3.6908240193h-2.035459966l-.1064268556-.759450175h3.0378006999v4.9212223009c-.9719330608.5669918543-2.0150645756.850673194-3.129023719.850673194-.8603146513,0-1.6097525437-.2024706033-2.2479428519-.6077826352-.6378194829-.4049412066-1.1313879316-1.0123530165-1.480705346-1.8226062549-.3493174145-.8098824132-.5239761217-1.8022108645-.5239761217-2.9769853539,0-1.1339837085.2024706033-2.1036918177.6074118099-2.9087535022s.9367046592-1.4098777174,1.5949195325-1.8151897493c.6582148733-.4049412066,1.3620412562-.6074118099,2.1111083233-.6074118099.5977703526,0,1.1165549203.0834356882,1.5570953539.2506778898Z"/>
        </g>
      </g>
    </g>
  </g>
</svg>