<?xml version="1.0" encoding="UTF-8"?>
<svg id="Warstwa_2" data-name="Warstwa 2" xmlns="http://www.w3.org/2000/svg" viewBox="0 0 309.482542 62">
  <defs>
    <style>
      .cls-1, .cls-2 {
        fill: #fff;
      }

      .cls-2, .cls-3, .cls-4, .cls-5 {
        fill-rule: evenodd;
      }

      .cls-6, .cls-5 {
        fill: #bed600;
      }

      .cls-4 {
        fill: #001d77;
      }
    </style>
  </defs>
  <g id="Warstwa_2-2" data-name="Warstwa 2">
    <g>
      <g>
        <g id="Warstwa_1-2" data-name="Warstwa 1-2">
          <g>
            <path class="cls-5" d="M41.25228835,20.63193156c0,11.39271713-9.23921505,20.62035396-20.63193219,20.62035396S0,32.0246487,0,20.63193156,9.2392156,0,20.62035396,0s20.63192998,9.23921553,20.63193439,20.63193156Z"/>
            <path class="cls-4" d="M41.25228835,41.34491136c0,11.39271713-9.23921505,20.62035616-20.63193219,20.62035616S0,52.73762849,0,41.34491136s9.2392156-20.63193219,20.62035396-20.63193219,20.63192998,9.23921505,20.63193439,20.63193219Z"/>
            <path class="cls-3" d="M38.46199911,30.99421057c-3.56601294,6.13632245-10.22334247,10.26965538-17.84164294,10.26965538s-14.26405177-4.13333293-17.84164294-10.26965318c3.57759117-6.13632024,10.22334247-10.26965318,17.84164294-10.26965318s14.27563,4.13333293,17.84164294,10.26965097Z"/>
            <path d="M121.76544935,42.50270779c2.95238445,2.37348182,6.41419333,3.51970223,10.18861219,3.51970223,5.93949255,0,12.38841836-1.70196218,12.38841836-8.4866456,0-9.88758265-15.7460298-7.80354773-15.7460298-13.87040081,0-2.30401465,2.69766782-3.61232365,5.14061901-3.61232365s4.89748282.98412741,5.95107299,1.51671272l2.74398074-2.76713278c-1.6672297-1.52829095-5.89317963-2.63977557-8.70662533-2.63977557h-.04631292c-7.58357021,0-11.04537909,4.39962669-11.04537909,8.42875777,0,9.59813133,15.6649844,8.1971987,15.51447405,13.92829195-.06946496,2.2808604-3.47338932,3.45023286-6.2405221,3.45023286s-5.65004344-1.14622042-7.44463145-2.18823456c0,0-2.69766782,2.72081986-2.69767666,2.72081545ZM100.42726063,41.86592064c-3.17235977,0-6.56470369-1.37777617-6.56470369-9.92231513v-15.76918736l-5.93949255,1.81774006v14.06722519c0,1.67880572,0,3.35760923.33576203,5.02483672,1.26199388,6.28683502,5.21008397,8.93818992,11.53165147,8.93818992h.63679157c.21998415,0-.0810454,0,.13893875,0,6.43734537,0,10.42016795-2.75555676,11.58954483-9.32026045.26629707-1.44724555.27786867-2.88291287.27786867-4.35331487v-16.16283833l-5.14061901,1.59775922v14.17142815c0,8.54453675-3.68179303,9.92231734-6.86573324,9.92231734l-.00000883-.01158044ZM71.45919761,41.98169851c-.63678716.21997973-1.87562899.43996388-3.03342543.43996388-5.37217477,0-10.62857166-3.63548011-10.62857166-11.63585333,0-7.1783388,4.28384771-10.86013183,9.94547159-10.86013183,2.44295119,0,4.73538761.46311813,6.80783988,1.47040201l2.85975862-2.84817818c-1.11148352-1.06517281-4.51540788-2.67450916-9.52866416-2.67450916-9.01923532,0-16.33650846,5.80056042-16.33650846,15.28291167,0,11.46218651,8.18562047,14.87768247,15.91970103,14.87768247,2.03771979,0,4.30700417-.42838345,5.91634051-.86834733l4.02913108-2.46610765v-11.63585333l-5.93949697,1.7135382v9.21605859l-.01157602-.01157602Z"/>
            <polyline points="164.46498766 0 164.46498766 62 165.25228076 62 165.25228076 0"/>
          </g>
        </g>
        <g>
          <path d="M258.09813523,19.08471907c.46337634.18840986.91444075.4812846,1.35244705.87862422l-.53463631.58052624c-.39733962-.33615305-.78460583-.58052624-1.16142556-.73349266-.37719282-.15259334-.80512572-.22907655-1.2837987-.22907655-.65215929,0-1.17673109.1604282-1.57406182.4812846-.39733962.3208564-.59582288.75140093-.59582288,1.29126048,0,.36674633.0734985.67006756.22161477.9092175.14737009.23952304.39472799.45367603.74095444.64208589s.84056916.37943135,1.48228196.57306446c.69282598.21377991,1.25320542.44285645,1.68113832.68760273.4279329.24437319.7588627.56037944.99316249.94727257.23429979.38726622.35144969.87638569.35144969,1.46698532,0,.59097272-.14251994,1.11590872-.4279329,1.57406182-.28503987.45852619-.69021436.81519912-1.21477727,1.0700188-.524936.25444659-1.1334439.38204297-1.82626988.38204297-1.3039455,0-2.41948113-.4380063-3.3466069-1.31439199l.5350094-.58052624c.41748641.36674633.84541931.64432443,1.28342561.83273429s.94242241.28280134,1.51287525.28280134c.75401255,0,1.36774369-.19885635,1.84156652-.59619597s.71073424-.93719917.71073424-1.61995175c0-.42755981-.07909483-.77938259-.23691141-1.05434906-.15818967-.27496648-.41263626-.51187789-.76408595-.71036115-.35144969-.19885635-.84803093-.39995124-1.49011683-.60365774-1.06964571-.32607965-1.83373165-.70327246-2.29225784-1.13083228-.4581531-.4279329-.68760273-1.00883223-.68760273-1.74232489,0-.48911947.12983492-.9293643.38987784-1.32185376.25966983-.39211637.62119292-.69767613,1.08494235-.91705237.46337634-.21863006.99577412-.32831818,1.59681133-.32831818.64172172,0,1.19426629.09439148,1.65801572.28280134Z"/>
          <path d="M267.89358274,20.07041979c.90175573.73349266,1.35244705,2.08332809,1.35244705,4.04950628s-.45591456,3.34436837-1.36774369,4.13382436-2.02475314,1.18418398-3.33914512,1.18418398h-2.24636791v-10.46812669h2.07847793c1.44646544,0,2.62094911.36674633,3.52233175,1.10061208ZM263.20982544,19.73389365v8.9399548h1.39050211c2.45529766,0,3.68312383-1.5177254,3.68312383-4.55392239,0-1.20209224-.17832726-2.12436786-.53500019-2.76608067s-.80736425-1.07188424-1.35244705-1.29126048c-.5450828-.21900315-1.17933383-.32869127-1.90238-.32869127h-1.2837987Z"/>
          <path d="M277.1693175,19.05412579c.44322954.16788998.88869762.43054452,1.33715041.78684437l-.54993295.56560268c-.37719282-.28541296-.74393915-.49434271-1.10061208-.62678925-.35667293-.13207345-.76930919-.19848326-1.23753568-.19848326-.59097272,0-1.14389039.15781658-1.65800681.47382283-.5148626.31563316-.93234901.81743765-1.25320542,1.50504038s-.4812846,1.55652664-.4812846,2.60565246c0,1.55876518.29511327,2.72541398.886086,3.49957333s1.41587215,1.16142556,2.47581755,1.16142556c.81482603,0,1.54831869-.18355971,2.20047798-.55030604v-3.71335323h-2.04788465l-.10670341-.76408595h3.05634378v4.95126201c-.97823894.57045284-2.02773785.8558658-3.14812364.8558658-.8659392,0-1.61995175-.20370651-2.26166455-.61149261-.64171281-.40741301-1.13866714-1.01853254-1.49011683-1.83373165-.35144969-.81482603-.52717453-1.81321177-.52717453-2.99515721,0-1.14090567.20370651-2.11653299.61149261-2.92650887.40703993-.80997587.94204932-1.41848377,1.60428202-1.82626988.66223269-.40741301,1.37035531-.61111952,2.12436786-.61111952.60104612,0,1.12299741.08394499,1.56622695.25220806Z"/>
          <path d="M259.38193393,34.64140446c.66708285.51448951,1.00099736,1.30170697,1.00099736,2.36090618,0,1.12075888-.34921115,1.94341977-1.04688729,2.46798268-.69804922.524936-1.65315665.78721745-2.8653223.78721745h-1.49757861v4.08009956h-.91705237v-10.46812669h2.4605209c1.24275893,0,2.19786636.2574313,2.8653223.77192081ZM258.65590305,38.9431188c.50926627-.37681973.76408595-1.01853254.76408595-1.92551151,0-.8558658-.24698481-1.46922385-.74095444-1.84156652-.49434271-.37159649-1.2203736-.55776782-2.17771956-.55776782h-1.52817189v4.89044852h1.49757861c.94764566,0,1.67591507-.18840986,2.18518134-.56560268Z"/>
          <path d="M262.98821067,44.12383044c-.24959643-.25481968-.37420811-.63163941-.37420811-1.13083228v-9.9028971l.886086-.10670341v9.97900722c0,.51933967.21415299.77938259.64208589.77938259.21377991,0,.39733962-.03581653.54993295-.1070765l.24474628.65700945c-.28541296.14251994-.59097272.21415299-.91705237.21415299-.4380063,0-.78199421-.12759638-1.03159064-.38204297Z"/>
          <path d="M272.15724201,43.4664479c.1070765.18355971.2775781.3208564.51187789.41263626l-.19848326.62678925c-.36675564-.08170646-.64954767-.22422639-.84840402-.4279329-.19848326-.20370651-.32831818-.50441611-.38950475-.90175573-.58052624.88645909-1.411022,1.32968863-2.4907411,1.32968863-.76408595,0-1.36774369-.21639153-1.81097323-.64954767s-.66484431-1.01107076-.66484431-1.73449002c0-.82527252.29287474-1.46176208.87862422-1.91021486.58574948-.4480797,1.39833698-.67230609,2.4373894-.67230609h1.52817189v-.77938259c0-.64208589-.14251994-1.10807386-.4279329-1.39833698-.28503987-.29026312-.7588627-.43576777-1.42109539-.43576777-.61111952,0-1.33453878.15296642-2.1698847.45852619l-.22944964-.67230609c.89653248-.35667293,1.73710164-.5350094,2.52170747-.5350094,1.7419518,0,2.61311424.8457924,2.61311424,2.53700412v3.85102301c0,.4178595.0533517.71819602.1604282.90138264ZM271.11035473,42.35091227v-2.1698847h-1.39050211c-.81519912,0-1.43640125.15818967-1.86432494.47382283-.4279329.31563316-.64171281.78945599-.64171281,1.42109539,0,.54993295.14737009.9730157.44285645,1.26850206s.70812262.44285645,1.23790877.44285645c.97823894,0,1.71658176-.47867298,2.21577463-1.43639204Z"/>
          <path d="M278.85829068,44.0014573c-.50963936.33615305-1.06964571.50441611-1.68113832.50441611-.61111952,0-1.09016559-.18094809-1.43639204-.54284426-.34622644-.36115-.51933967-.88347437-.51933967-1.56622695v-5.33330498h-1.34498527v-.71819602h1.34498527v-1.91021486l.886086-.1070765v2.01729136h2.06318129l-.1070765.71819602h-1.95610479v5.28741505c0,.46897267.09663001.81781074.29026312,1.04688729s.48911947.34398791.88645909.34398791c.41748641,0,.82527252-.12237314,1.22261213-.36674633l.35144969.62641616Z"/>
          <path d="M281.75420626,34.03774672c-.22944964.21377991-.34398791.55552928-.34398791,1.02375578v1.2837987h2.10869813l-.12200005.71819602h-1.98669808v7.27411313h-.88645909v-7.27411313h-1.39050211v-.71819602h1.39050211v-1.31439199c0-.63126632.19624473-1.13083228.5883611-1.49757861s.93458755-.54993295,1.62741352-.54993295c.62156601,0,1.24313202.14251994,1.86469803.4279329l-.30593285.65700945c-.52978615-.23429979-1.03382918-.35144969-1.51287525-.35144969-.4581531,0-.80214101.1070765-1.03121756.3208564Z"/>
          <path d="M290.4188215,37.26981535c.59582288.72864251.89392086,1.74456342.89392086,3.04888201,0,1.2938721-.30332123,2.31501626-.9092175,3.06380556-.60626937.7487893-1.4341535,1.1233705-2.48327932,1.1233705-1.05957231,0-1.88745645-.36935795-2.48327932-1.10807386-.59619597-.7387159-.89392086-1.75463682-.89392086-3.04888201,0-.84541931.13729669-1.58376213.41263626-2.21577463.27496648-.63163941.66708285-1.11553563,1.1767222-1.45168868.50926627-.33615305,1.11031239-.50441611,1.80313837-.50441611,1.05919922,0,1.88708336.3645078,2.48327932,1.09277721ZM286.13240381,37.79698988c-.4279329.58089932-.64208589,1.43154188-.64208589,2.55192767,0,1.11068548.21154137,1.95610479.63425103,2.53700412.42270966.58052624,1.02114416.87116244,1.79567659.87116244.77415934,0,1.37781709-.29063621,1.81097323-.87116244.43278306-.58089932.64917458-1.43639204.64917458-2.56722431,0-1.11031239-.21154137-1.95349317-.63387794-2.52916925-.42308275-.57567608-1.02674049-.86370067-1.81097323-.86370067-.77453243,0-1.37557856.29063621-1.80313837.87116244Z"/>
          <path d="M297.8074729,36.26881799l-.16826307.84056916c-.22422639-.06118657-.45852619-.09177985-.70289938-.09177985-.54993295,0-.99092396.19885635-1.32185376.59619597-.33130289.39733962-.60365774,1.01853254-.81743765,1.86432494v4.85948215h-.88645909v-7.99230915h.76408595l.07648321,1.78784172c.21377991-.6618596.50665465-1.1535907.87862422-1.4744471.37159649-.32122949.83273429-.48165769,1.38304033-.48165769.31563316,0,.58052624.03059328.79467923.09177985Z"/>
          <path d="M308.92477418,36.83442067c.37159649.4380063.55776782,1.03382918.55776782,1.78784172v5.71534795h-.88645909v-5.59297481c0-.63163941-.11976152-1.09762737-.35928455-1.39833698-.23914995-.30033652-.57306446-.45106441-1.00062427-.45106441-.44845279,0-.85101565.14289303-1.20731549.4279329-.35667293.28541296-.70289938.69319907-1.03942551,1.22261213v5.79183116h-.886086v-5.59297481c0-.63163941-.12013461-1.09762737-.35928455-1.39833698-.23952304-.30033652-.57306446-.45106441-1.00099736-.45106441-.4581531,0-.8659392.14289303-1.22223904.4279329-.35704602.28541296-.69804922.69319907-1.02412887,1.22261213v5.79183116h-.886086v-7.99230915h.76408595l.07611012,1.34461218c.31563316-.4682265.68014096-.83758445,1.09277721-1.10770077.41263626-.26974323.86855082-.40517448,1.36774369-.40517448.50926627,0,.93458755.13766978,1.27596384.41263626.34137629.27533956.57306446.66745594.6954376,1.1767222.70289938-1.05919922,1.54346853-1.58935846,2.52133439-1.58935846.64171281,0,1.14874054.21937624,1.52071011.65738254Z"/>
        </g>
      </g>
      <g>
        <g>
          <g>
            <g>
              <path class="cls-4" d="M205.96437848,51.66638988c11.37367692,0,20.6499551-9.27640779,20.6499551-20.65000067s-9.27627818-20.64999933-20.6499551-20.64999933c-11.37363264,0-20.6500449,9.27640645-20.6500449,20.64999933s9.27641227,20.65000067,20.6500449,20.65000067Z"/>
              <path class="cls-1" d="M205.96437522,10.63484351c11.23840332,0,20.38150024,9.14312744,20.38150024,20.38153076,0,11.23846436-9.14309692,20.3815918-20.38150024,20.3815918-11.23843384,0-20.3815918-9.14312744-20.3815918-20.3815918,0-11.23840332,9.14315796-20.38153076,20.3815918-20.38153076M205.96437522,10.35139625c-11.38189697,0-20.66503906,9.28314209-20.66503906,20.66497803,0,11.38189697,9.28314209,20.66503906,20.66503906,20.66503906,11.38192749,0,20.66494751-9.28314209,20.66494751-20.66503906,0-11.38183594-9.28302002-20.66497803-20.66494751-20.66497803h0Z"/>
            </g>
            <path class="cls-1" d="M205.96437522,10.63484351c11.23840332,0,20.38150024,9.14312744,20.38150024,20.38153076,0,11.23846436-9.14309692,20.3815918-20.38150024,20.3815918-11.23843384,0-20.3815918-9.14312744-20.3815918-20.3815918,0-11.23840332,9.14315796-20.38153076,20.3815918-20.38153076M205.96437522,10.35139625c-11.38189697,0-20.66503906,9.28314209-20.66503906,20.66497803,0,11.38189697,9.28314209,20.66503906,20.66503906,20.66503906,11.38192749,0,20.66494751-9.28314209,20.66494751-20.66503906,0-11.38183594-9.28302002-20.66497803-20.66494751-20.66497803h0Z"/>
          </g>
          <path class="cls-1" d="M205.96437025,11.00118217c11.03640904,0,20.01516669,8.97878097,20.01516669,20.01521333,0,11.03640904-8.97875765,20.01519001-20.01516669,20.01519001-11.03643236,0-20.01523665-8.97878097-20.01523665-20.01519001,0-11.03643236,8.97880429-20.01521333,20.01523665-20.01521333M205.96437025,10.3513877c-11.38189655,0-20.66503111,9.28315788-20.66503111,20.6650078s9.28313457,20.66498448,20.66503111,20.66498448c11.38194318,0,20.66496116-9.28313457,20.66496116-20.66498448s-9.28301797-20.6650078-20.66496116-20.6650078h0Z"/>
        </g>
        <g>
          <path class="cls-2" d="M226.40551773,51.6813877c11.38193747,0,20.66495288-9.28314512,20.66495288-20.66499849s-9.28301542-20.66499715-20.66495288-20.66499715c-11.38189316,0-20.66504276,9.28314379-20.66504276,20.66499715s9.2831496,20.66499849,20.66504276,20.66499849Z"/>
          <g>
            <path class="cls-6" d="M216.66677807,25.30100842c.49860217-.84648588,1.10299648-1.62400163,1.79575143-2.3104052l-5.8875693-6.45756415c-1.48111987,1.41614902-2.74511451,3.05767585-3.73771159,4.86663426l7.82952946,3.90133508Z"/>
            <path class="cls-6" d="M231.09960825,20.73899224c.89142509.40854439,1.71983435.93024879,2.46779118,1.54768222l5.90404976-6.44833044c-1.5546951-1.34058338-3.31813986-2.44749747-5.23249479-3.26458624l-3.13934615,8.16523446Z"/>
            <path class="cls-6" d="M244.61944558,22.6805203l-7.8250035,3.90133508c.37444941.87230257.63943713,1.79887672.78384743,2.76587189l8.7043759-.82255362c-.25670307-2.06015291-.82793859-4.02561323-1.66321983-5.84465335"/>
            <path class="cls-6" d="M236.23329087,25.45100904l7.82405669-3.90133508c-.96961201-1.80076115-2.20505955-3.43767112-3.65585083-4.85561035l-5.90405449,6.44644601c.67240751.69196263,1.25664279,1.46674596,1.73584863,2.31049942"/>
            <path class="cls-6" d="M215.11123086,31.01318635c0-.1766653.00640568-.35238838.01375336-.52726347l-8.70625487-.77930596c-.02760092.43153443-.04408612.8667435-.04408612,1.30656942,0,1.67007594.20696388,3.29219314.59327858,4.84355l8.40820257-2.41348351c-.17201122-.7829806-.26489352-1.59554674-.26489352-2.43006649"/>
            <path class="cls-6" d="M235.13773194,38.1709104c-.61918866.75264128-1.33398667,1.42434629-2.12329305,1.99664763l4.59691519,7.44480752c1.70560528-1.15568313,3.22535176-2.56809155,4.50130578-4.18201148l-6.97492793-5.25944366Z"/>
            <path class="cls-6" d="M237.69971473,31.01318635c0,.82443805-.08836064,1.62767627-.25942985,2.40340181l8.40905542,2.41442572c.38273407-1.54306537.58696207-3.1569853.58696207-4.81782753,0-.41316124-.01290555-.82255362-.03862245-1.23025002l-8.70625487.82264784c.00555787.13615006.0082897.2705099.0082897.40760217"/>
            <path class="cls-6" d="M217.81583889,38.33739978l-6.95929531,5.2898772c1.29432323,1.59366231,2.82697527,2.98307127,4.54444989,4.11759225l4.5959779-7.43654429c-.80956433-.56033521-1.54367357-1.22469095-2.18113247-1.97092516"/>
            <path class="cls-6" d="M215.25290933,29.22910241c.15543183-.98367237.44057859-1.92400286.83433922-2.80459692l-7.82217747-3.89766044c-.86382417,1.83929774-1.45719695,3.83048052-1.72670632,5.92012476l8.71454457.7821326Z"/>
            <path class="cls-6" d="M236.54245411,48.28590788l-4.59004323-7.43467871c-.83528123.47110746-1.73226419.84007882-2.67973894,1.08854089l1.62091848,8.60137633c2.01420811-.46374876,3.91471548-1.23297302,5.64886369-2.25523851"/>
            <path class="cls-6" d="M237.10634195,34.63298762c-.30539999.89529261-.71658783,1.73904607-1.22169418,2.51750403l6.98049056,5.26679294c1.13333354-1.63040869,2.0303165-3.43578669,2.6420585-5.36892904l-8.40085488-2.41536794Z"/>
            <path class="cls-6" d="M228.03534038,42.19096457c-.53176526.07726162-1.07539986.11956707-1.62920818.11956707-.44519444,0-.88407741-.0276069-1.31457647-.07820384l-1.61903446,8.60050007c.95764847.14078575,1.93734.21439158,2.93361093.21439158,1.1048848,0,2.19036418-.09016997,3.24739482-.26223726l-1.61818665-8.59401763Z"/>
            <path class="cls-6" d="M227.1282779,19.73788889c.96961201.06256307,1.90700725.24751986,2.79475849.5410198l3.14019396-8.16335003c-1.8688558-.65973888-3.86139765-1.05170029-5.93495246-1.12349707v8.74582729Z"/>
            <path class="cls-6" d="M223.84687648,42.01703169c-.97969153-.22820445-1.90973908-.58332525-2.77262123-1.04896787l-4.59880393,7.4411423c1.76900262,1.01214611,3.70370499,1.76204554,5.75323852,2.1981874l1.61818665-8.59036183Z"/>
            <path class="cls-6" d="M223.01159525,20.23754546c.90800449-.28615067,1.86376894-.46102576,2.85363419-.50700585v-8.7449793c-2.10209774.05521379-4.12129851.43803571-6.0154944,1.09589017l3.16186022,8.15609498Z"/>
            <path class="cls-6" d="M217.04857086,37.33262179c-.55380832-.82076341-1.00634616-1.71784624-1.33200368-2.67202728l-8.4027389,2.41254129c.63661109,2.00314891,1.57956419,3.87193798,2.77544727,5.54842098l6.95929531-5.28893499Z"/>
            <path class="cls-6" d="M219.40821444,22.1513724c.73872509-.58426747,1.55102126-1.07742276,2.4212511-1.46570952l-3.15902983-8.15242034c-1.88223671.78948188-3.61629072,1.85964958-5.15440642,3.15604308l5.89218515,6.46208678Z"/>
          </g>
        </g>
      </g>
    </g>
  </g>
</svg>