<?xml version="1.0" encoding="UTF-8"?>
<svg id="Warstwa_2" data-name="Warstwa 2" xmlns="http://www.w3.org/2000/svg" viewBox="0 0 318.28619603 62">
  <defs>
    <style>
      .cls-1, .cls-2 {
        fill: #fff;
      }

      .cls-2, .cls-3, .cls-4, .cls-5 {
        fill-rule: evenodd;
      }

      .cls-6, .cls-5 {
        fill: #bed600;
      }

      .cls-4 {
        fill: #001d77;
      }
    </style>
  </defs>
  <g id="Warstwa_2-2" data-name="Warstwa 2">
    <g>
      <g id="Warstwa_1-2" data-name="Warstwa 1-2">
        <g>
          <path class="cls-5" d="M41.25228835,20.63193156c0,11.39271713-9.23921505,20.62035396-20.63193219,20.62035396S0,32.0246487,0,20.63193156,9.2392156,0,20.62035396,0s20.63192998,9.23921553,20.63193439,20.63193156Z"/>
          <path class="cls-4" d="M41.25228835,41.34491136c0,11.39271713-9.23921505,20.62035616-20.63193219,20.62035616S0,52.73762849,0,41.34491136s9.2392156-20.63193219,20.62035396-20.63193219,20.63192998,9.23921505,20.63193439,20.63193219Z"/>
          <path class="cls-3" d="M38.46199911,30.99421057c-3.56601294,6.13632245-10.22334247,10.26965538-17.84164294,10.26965538s-14.26405177-4.13333293-17.84164294-10.26965318c3.57759117-6.13632024,10.22334247-10.26965318,17.84164294-10.26965318s14.27563,4.13333293,17.84164294,10.26965097Z"/>
          <path d="M121.76544935,42.50270779c2.95238445,2.37348182,6.41419333,3.51970223,10.18861219,3.51970223,5.93949255,0,12.38841836-1.70196218,12.38841836-8.4866456,0-9.88758265-15.7460298-7.80354773-15.7460298-13.87040081,0-2.30401465,2.69766782-3.61232365,5.14061901-3.61232365s4.89748282.98412741,5.95107299,1.51671272l2.74398074-2.76713278c-1.6672297-1.52829095-5.89317963-2.63977557-8.70662533-2.63977557h-.04631292c-7.58357021,0-11.04537909,4.39962669-11.04537909,8.42875777,0,9.59813133,15.6649844,8.1971987,15.51447405,13.92829195-.06946496,2.2808604-3.47338932,3.45023286-6.2405221,3.45023286s-5.65004344-1.14622042-7.44463145-2.18823456c0,0-2.69766782,2.72081986-2.69767666,2.72081545ZM100.42726063,41.86592064c-3.17235977,0-6.56470369-1.37777617-6.56470369-9.92231513v-15.76918736l-5.93949255,1.81774006v14.06722519c0,1.67880572,0,3.35760923.33576203,5.02483672,1.26199388,6.28683502,5.21008397,8.93818992,11.53165147,8.93818992h.63679157c.21998415,0-.0810454,0,.13893875,0,6.43734537,0,10.42016795-2.75555676,11.58954483-9.32026045.26629707-1.44724555.27786867-2.88291287.27786867-4.35331487v-16.16283833l-5.14061901,1.59775922v14.17142815c0,8.54453675-3.68179303,9.92231734-6.86573324,9.92231734l-.00000883-.01158044ZM71.45919761,41.98169851c-.63678716.21997973-1.87562899.43996388-3.03342543.43996388-5.37217477,0-10.62857166-3.63548011-10.62857166-11.63585333,0-7.1783388,4.28384771-10.86013183,9.94547159-10.86013183,2.44295119,0,4.73538761.46311813,6.80783988,1.47040201l2.85975862-2.84817818c-1.11148352-1.06517281-4.51540788-2.67450916-9.52866416-2.67450916-9.01923532,0-16.33650846,5.80056042-16.33650846,15.28291167,0,11.46218651,8.18562047,14.87768247,15.91970103,14.87768247,2.03771979,0,4.30700417-.42838345,5.91634051-.86834733l4.02913108-2.46610765v-11.63585333l-5.93949697,1.7135382v9.21605859l-.01157602-.01157602Z"/>
          <polyline points="164.46498766 0 164.46498766 62 165.25228076 62 165.25228076 0"/>
        </g>
      </g>
      <g>
        <g>
          <g>
            <g>
              <g>
                <path class="cls-4" d="M205.96437848,51.66638988c11.37367692,0,20.6499551-9.27640779,20.6499551-20.65000067s-9.27627818-20.64999933-20.6499551-20.64999933c-11.37363264,0-20.6500449,9.27640645-20.6500449,20.64999933s9.27641227,20.65000067,20.6500449,20.65000067Z"/>
                <path class="cls-1" d="M205.96437522,10.63484351c11.23840332,0,20.38150024,9.14312744,20.38150024,20.38153076,0,11.23846436-9.14309692,20.3815918-20.38150024,20.3815918-11.23843384,0-20.3815918-9.14312744-20.3815918-20.3815918,0-11.23840332,9.14315796-20.38153076,20.3815918-20.38153076M205.96437522,10.35139625c-11.38189697,0-20.66503906,9.28314209-20.66503906,20.66497803,0,11.38189697,9.28314209,20.66503906,20.66503906,20.66503906,11.38192749,0,20.66494751-9.28314209,20.66494751-20.66503906,0-11.38183594-9.28302002-20.66497803-20.66494751-20.66497803h0Z"/>
              </g>
              <path class="cls-1" d="M205.96437522,10.63484351c11.23840332,0,20.38150024,9.14312744,20.38150024,20.38153076,0,11.23846436-9.14309692,20.3815918-20.38150024,20.3815918-11.23843384,0-20.3815918-9.14312744-20.3815918-20.3815918,0-11.23840332,9.14315796-20.38153076,20.3815918-20.38153076M205.96437522,10.35139625c-11.38189697,0-20.66503906,9.28314209-20.66503906,20.66497803,0,11.38189697,9.28314209,20.66503906,20.66503906,20.66503906,11.38192749,0,20.66494751-9.28314209,20.66494751-20.66503906,0-11.38183594-9.28302002-20.66497803-20.66494751-20.66497803h0Z"/>
            </g>
            <path class="cls-1" d="M205.96437025,11.00118217c11.03640904,0,20.01516669,8.97878097,20.01516669,20.01521333,0,11.03640904-8.97875765,20.01519001-20.01516669,20.01519001-11.03643236,0-20.01523665-8.97878097-20.01523665-20.01519001,0-11.03643236,8.97880429-20.01521333,20.01523665-20.01521333M205.96437025,10.3513877c-11.38189655,0-20.66503111,9.28315788-20.66503111,20.6650078s9.28313457,20.66498448,20.66503111,20.66498448c11.38194318,0,20.66496116-9.28313457,20.66496116-20.66498448s-9.28301797-20.6650078-20.66496116-20.6650078h0Z"/>
          </g>
          <g>
            <path class="cls-2" d="M226.40551773,51.6813877c11.38193747,0,20.66495288-9.28314512,20.66495288-20.66499849s-9.28301542-20.66499715-20.66495288-20.66499715c-11.38189316,0-20.66504276,9.28314379-20.66504276,20.66499715s9.2831496,20.66499849,20.66504276,20.66499849Z"/>
            <g>
              <path class="cls-6" d="M216.66677807,25.30100842c.49860217-.84648588,1.10299648-1.62400163,1.79575143-2.3104052l-5.8875693-6.45756415c-1.48111987,1.41614902-2.74511451,3.05767585-3.73771159,4.86663426l7.82952946,3.90133508Z"/>
              <path class="cls-6" d="M231.09960825,20.73899224c.89142509.40854439,1.71983435.93024879,2.46779118,1.54768222l5.90404976-6.44833044c-1.5546951-1.34058338-3.31813986-2.44749747-5.23249479-3.26458624l-3.13934615,8.16523446Z"/>
              <path class="cls-6" d="M244.61944558,22.6805203l-7.8250035,3.90133508c.37444941.87230257.63943713,1.79887672.78384743,2.76587189l8.7043759-.82255362c-.25670307-2.06015291-.82793859-4.02561323-1.66321983-5.84465335"/>
              <path class="cls-6" d="M236.23329087,25.45100904l7.82405669-3.90133508c-.96961201-1.80076115-2.20505955-3.43767112-3.65585083-4.85561035l-5.90405449,6.44644601c.67240751.69196263,1.25664279,1.46674596,1.73584863,2.31049942"/>
              <path class="cls-6" d="M215.11123086,31.01318635c0-.1766653.00640568-.35238838.01375336-.52726347l-8.70625487-.77930596c-.02760092.43153443-.04408612.8667435-.04408612,1.30656942,0,1.67007594.20696388,3.29219314.59327858,4.84355l8.40820257-2.41348351c-.17201122-.7829806-.26489352-1.59554674-.26489352-2.43006649"/>
              <path class="cls-6" d="M235.13773194,38.1709104c-.61918866.75264128-1.33398667,1.42434629-2.12329305,1.99664763l4.59691519,7.44480752c1.70560528-1.15568313,3.22535176-2.56809155,4.50130578-4.18201148l-6.97492793-5.25944366Z"/>
              <path class="cls-6" d="M237.69971473,31.01318635c0,.82443805-.08836064,1.62767627-.25942985,2.40340181l8.40905542,2.41442572c.38273407-1.54306537.58696207-3.1569853.58696207-4.81782753,0-.41316124-.01290555-.82255362-.03862245-1.23025002l-8.70625487.82264784c.00555787.13615006.0082897.2705099.0082897.40760217"/>
              <path class="cls-6" d="M217.81583889,38.33739978l-6.95929531,5.2898772c1.29432323,1.59366231,2.82697527,2.98307127,4.54444989,4.11759225l4.5959779-7.43654429c-.80956433-.56033521-1.54367357-1.22469095-2.18113247-1.97092516"/>
              <path class="cls-6" d="M215.25290933,29.22910241c.15543183-.98367237.44057859-1.92400286.83433922-2.80459692l-7.82217747-3.89766044c-.86382417,1.83929774-1.45719695,3.83048052-1.72670632,5.92012476l8.71454457.7821326Z"/>
              <path class="cls-6" d="M236.54245411,48.28590788l-4.59004323-7.43467871c-.83528123.47110746-1.73226419.84007882-2.67973894,1.08854089l1.62091848,8.60137633c2.01420811-.46374876,3.91471548-1.23297302,5.64886369-2.25523851"/>
              <path class="cls-6" d="M237.10634195,34.63298762c-.30539999.89529261-.71658783,1.73904607-1.22169418,2.51750403l6.98049056,5.26679294c1.13333354-1.63040869,2.0303165-3.43578669,2.6420585-5.36892904l-8.40085488-2.41536794Z"/>
              <path class="cls-6" d="M228.03534038,42.19096457c-.53176526.07726162-1.07539986.11956707-1.62920818.11956707-.44519444,0-.88407741-.0276069-1.31457647-.07820384l-1.61903446,8.60050007c.95764847.14078575,1.93734.21439158,2.93361093.21439158,1.1048848,0,2.19036418-.09016997,3.24739482-.26223726l-1.61818665-8.59401763Z"/>
              <path class="cls-6" d="M227.1282779,19.73788889c.96961201.06256307,1.90700725.24751986,2.79475849.5410198l3.14019396-8.16335003c-1.8688558-.65973888-3.86139765-1.05170029-5.93495246-1.12349707v8.74582729Z"/>
              <path class="cls-6" d="M223.84687648,42.01703169c-.97969153-.22820445-1.90973908-.58332525-2.77262123-1.04896787l-4.59880393,7.4411423c1.76900262,1.01214611,3.70370499,1.76204554,5.75323852,2.1981874l1.61818665-8.59036183Z"/>
              <path class="cls-6" d="M223.01159525,20.23754546c.90800449-.28615067,1.86376894-.46102576,2.85363419-.50700585v-8.7449793c-2.10209774.05521379-4.12129851.43803571-6.0154944,1.09589017l3.16186022,8.15609498Z"/>
              <path class="cls-6" d="M217.04857086,37.33262179c-.55380832-.82076341-1.00634616-1.71784624-1.33200368-2.67202728l-8.4027389,2.41254129c.63661109,2.00314891,1.57956419,3.87193798,2.77544727,5.54842098l6.95929531-5.28893499Z"/>
              <path class="cls-6" d="M219.40821444,22.1513724c.73872509-.58426747,1.55102126-1.07742276,2.4212511-1.46570952l-3.15902983-8.15242034c-1.88223671.78948188-3.61629072,1.85964958-5.15440642,3.15604308l5.89218515,6.46208678Z"/>
            </g>
          </g>
        </g>
        <g>
          <path d="M259.38206859,19.74604821c.66709683.51450029,1.00101834,1.30173424,1.00101834,2.36095566,0,1.12078236-.34884538,1.9434605-1.04690923,2.4680344-.69806385.524947-1.6531913.78723395-2.86538234.78723395h-1.49760999v4.08018506h-.91669849v-10.46834606h2.46019937c1.24315807,0,2.19828552.25743669,2.86538234.77193699ZM258.6560225,24.04785269c.50965004-.37682763.76410196-1.01855388.76410196-1.92555186,0-.85588374-.24698999-1.46925464-.74096996-1.84160511-.49435307-.37160427-1.22002608-.55777951-2.1777652-.55777951h-1.52820392v4.89055101h1.49760999c.94766551,0,1.67595019-.18841381,2.18522713-.56561454Z"/>
          <path d="M262.9884209,29.2286729c-.24960166-.25482502-.37421595-.63165264-.37421595-1.13085597v-9.90310462l.88610457-.10670564v9.97921634c0,.51935055.21415748.77939892.64209935.77939892.21378439,0,.39734794-.03581728.55031757-.10707874l.24437831.65702322c-.28541894.14252292-.59098511.21415748-.91669849.21415748-.43838857,0-.7820106-.12759906-1.03198536-.38205098Z"/>
          <path d="M272.15764439,28.57127658c.10707874.18356356.27758391.32086313.51188862.4126449l-.19848742.62680239c-.36675402-.08170817-.64956128-.22423109-.8484218-.42794187-.19848742-.20371078-.32832506-.50442668-.38951291-.90177462-.5805384.88647766-1.41105156,1.32971649-2.4907933,1.32971649-.76410196,0-1.36777235-.21639606-1.81101118-.64956128s-.66485825-1.01109195-.66485825-1.73452637c0-.82528981.29288088-1.46179271.87901573-1.91025489.58576175-.44808909,1.39836628-.67232018,2.43706738-.67232018h1.52820392v-.77939892c0-.64209935-.14252292-1.10809708-.42756877-1.39836628-.28541894-.2902692-.7592517-.4357769-1.42149827-.4357769-.61113233,0-1.33456675.15296963-2.16993017.45853579l-.22908135-.67232018c.89617818-.35668041,1.73676495-.53502061,2.52138722-.53502061,1.7423614,0,2.613169.84581013,2.613169,2.53705728v3.85110371c0,.41786826.05372592.71821107.16043156.90140153ZM271.11073517,27.45571757v-2.16993017h-1.39053125c-.8152162,0-1.43642214.15819298-1.86436401.47383276s-.64172625.78947253-.64172625,1.42112517c0,.54994448.14774628.97303609.44323883,1.26852864s.70776436.44286573,1.23793471.44286573c.97788634,0,1.71624463-.47868301,2.21544796-1.43642214Z"/>
          <path d="M278.85883349,29.10629719c-.50927694.33616009-1.06966812.50442668-1.68080045.50442668-.61150542,0-1.09018844-.18095188-1.43642214-.54285564-.3466068-.36115757-.51972365-.88349289-.51972365-1.56625977v-5.33341674h-1.34501346v-.71821107h1.34501346v-1.91025489l.88610457-.10707874v2.01733364h2.06322452l-.10670564.71821107h-1.95651888v5.28752585c0,.4689825.09700513.81782788.2902692,1.04690923.19363717.22908135.48950282.34399512.88647766.34399512.41786826,0,.82528981-.1223757,1.22263775-.36675402l.35145705.62642929Z"/>
          <path d="M281.75480975,19.14237781c-.22945445.21378439-.34399512.55554093-.34399512,1.02377723v1.2838256h2.10911541l-.1223757.71821107h-1.98673971v7.27426556h-.88610457v-7.27426556h-1.39090434v-.71821107h1.39090434v-1.31441953c0-.63127955.19587575-1.13085597.58800033-1.49760999.39249769-.36675402.93498023-.54994448,1.62744763-.54994448.62157903,0,1.24315807.14252292,1.8647371.42794187l-.30593926.65702322c-.52979726-.2343047-1.03385084-.35145705-1.51253386-.35145705-.45853579,0-.80253091.10707874-1.03161226.32086313Z"/>
          <path d="M290.41960656,22.37451417c.59583536.72865778.8939396,1.74459998.8939396,3.0489459,0,1.29389921-.30332758,2.31506477-.90923656,3.06386976-.60628207.74880499-1.43418356,1.12339404-2.48333136,1.12339404-1.05959451,0-1.8871229-.36936569-2.48333136-1.10809708s-.8939396-1.75467359-.8939396-3.0489459c0-.84543703.13729957-1.58379532.4126449-2.21582106.27497224-.63165264.66709683-1.11555901,1.17674686-1.4517191.50927694-.33616009,1.11033566-.50442668,1.80317615-.50442668,1.05922142,0,1.887496.36451544,2.48333136,1.09280011ZM286.13309905,22.90169975c-.42794187.5809115-.64172625,1.43157188-.64172625,2.55198115,0,1.11070875.21117271,1.95614578.63426432,2.53705728.42234542.5805384,1.02079246.8711807,1.79534112.8711807.77417557,0,1.37784596-.2906423,1.81101118-.8711807.43279212-.5809115.64918819-1.43642214.64918819-2.56727811,0-1.11033566-.21117271-1.95353411-.63389122-2.52922225s-1.02638891-.86371877-1.81101118-.86371877c-.77417557,0-1.37560738.2906423-1.80317615.8711807Z"/>
          <path d="M297.8084128,21.37349584l-.16826659.84058677c-.223858-.06118785-.4581627-.09178178-.70291411-.09178178-.54994448,0-.99094473.19886052-1.32150837.59620846-.33130983.39734794-.60367039,1.01855388-.81782788,1.86436401v4.85958398h-.88647766v-7.99247663h.76410196l.07648482,1.78787919c.21378439-.66187347.50666526-1.15361487.87864263-1.474478.37160427-.32123622.83275174-.48166779,1.38306932-.48166779.31563977,0,.5809115.03059393.79469588.09178178Z"/>
          <path d="M308.92594704,21.93911037c.37197737.43801548.55777951,1.03385084.55777951,1.78787919v5.71546772h-.88647766v-5.59309202c0-.63165264-.11976403-1.09765037-.35891899-1.39836628-.23952806-.30034281-.57307647-.45107386-1.00101834-.45107386-.44846218,0-.85103348.14289602-1.20734079.42794187-.35668041.28541894-.70291411.69321359-1.0390742,1.22263775v5.79195253h-.88647766v-5.59309202c0-.63165264-.12013712-1.09765037-.35891899-1.39836628-.23952806-.30034281-.57307647-.45107386-1.00139143-.45107386-.4581627,0-.86558425.14289602-1.22226466.42794187-.35668041.28541894-.69806385.69321359-1.02377723,1.22263775v5.79195253h-.88647766v-7.99247663h.76410196l.07611172,1.34464036c.31563977-.46823631.68052831-.837602,1.09280011-1.10772398.4126449-.26974888.86856902-.40518297,1.36777235-.40518297.50927694,0,.93460713.13767267,1.27636367.4126449.34101035.27534533.57307647.66746992.69507908,1.17674686.70291411-1.05922142,1.54350088-1.58939177,2.52176032-1.58939177.64172625,0,1.14839152.21938084,1.52036889.65739631Z"/>
          <path d="M317.77430741,28.57127658c.10707874.18356356.27721082.32086313.51188862.4126449l-.19886052.62680239c-.36638092-.08170817-.64918819-.22423109-.84804871-.42794187-.19848742-.20371078-.32869816-.50442668-.38951291-.90177462-.5809115.88647766-1.41142466,1.32971649-2.49116639,1.32971649-.76410196,0-1.36777235-.21639606-1.81101118-.64956128s-.66448515-1.01109195-.66448515-1.73452637c0-.82528981.29288088-1.46179271.87864263-1.91025489.58576175-.44808909,1.39836628-.67232018,2.43744047-.67232018h1.52820392v-.77939892c0-.64209935-.14289602-1.10809708-.42794187-1.39836628s-.7588786-.4357769-1.42112517-.4357769c-.61150542,0-1.33456675.15296963-2.17030327.45853579l-.22908135-.67232018c.89655127-.35668041,1.73713804-.53502061,2.52138722-.53502061,1.7423614,0,2.6135421.84581013,2.6135421,2.53705728v3.85110371c0,.41786826.05335282.71821107.16043156.90140153ZM316.72739819,27.45571757v-2.16993017h-1.39053125c-.8152162,0-1.43642214.15819298-1.8647371.47383276-.42756877.31563977-.64172625.78947253-.64172625,1.42112517,0,.54994448.14774628.97303609.44323883,1.26852864s.70813746.44286573,1.23793471.44286573c.97825944,0,1.71661773-.47868301,2.21582106-1.43642214Z"/>
          <path d="M258.09861609,34.37106415c.46338605.18841381.91408681.48129469,1.35210229.87864263l-.53464751.5805384c-.39734794-.33616009-.78462227-.5805384-1.1614499-.73350803-.37682763-.15259653-.80514259-.22908135-1.2838256-.22908135-.65179986,0-1.17637377.16043156-1.5740948.48129469-.39697485.32086313-.59583536.75141667-.59583536,1.29128754,0,.36675402.07350004.6700816.22161942.90923656.14737318.23952806.39473627.45368554.74134306.64209935.3462337.18841381.84021368.3794393,1.48193993.57307647.6928405.21378439,1.25323168.44286573,1.68117355.68761714.42794187.24437831.7588786.56039118.99318331.94729242.2343047.38727433.35145705.87640405.35145705,1.46701606,0,.59098511-.14252292,1.11593211-.42756877,1.5740948-.28541894.45853579-.69022882.8152162-1.21480272,1.07004122-.5253201.25445192-1.13346765.38205098-1.82668124.38205098-1.30397282,0-2.41953183-.43801548-3.34667703-1.31441953l.53502061-.5805384c.41786826.36675402.84543703.64433793,1.28345251.83275174s.94244216.28280727,1.51328005.28280727c.75365525,0,1.36777235-.19886052,1.84160511-.59620846.47345966-.39734794.71037604-.93721881.71037604-1.61998569,0-.42756877-.07909649-.77939892-.23691638-1.05437116s-.4126449-.51188862-.76410196-.71037604c-.35145705-.19886052-.84804871-.39995962-1.48977496-.60367039-1.07004122-.32608648-1.83414318-.7032872-2.29230587-1.13085597-.45853579-.42794187-.68799024-1.00885337-.68799024-1.7423614,0-.48912972.12983764-.92938378.38988601-1.32188146.25967527-.39212459.62120594-.69769075,1.08496508-.91707159.46338605-.21863464.99579498-.32832506,1.5972268-.32832506.64172625,0,1.19390931.09439345,1.65804155.28280727Z"/>
          <path d="M267.89389577,35.35678552c.90177462.73350803,1.35284849,2.08337174,1.35284849,4.04959114s-.45629721,3.34443845-1.36777235,4.13391098c-.91184823.78947253-2.02516867,1.1842088-3.3392151,1.1842088h-2.24678808v-10.46834606h2.07852149c1.44649575,0,2.62100403.36675402,3.52240556,1.10063514ZM263.21004032,35.02025233v8.94014214h1.39090434c2.45497602,0,3.68283712-1.51775721,3.68283712-4.55401782,0-1.20211744-.1783402-2.12441238-.53464751-2.76613863-.3570535-.64172625-.80775427-1.0719067-1.35284849-1.29128754-.54509422-.21900774-1.17898544-.32869816-1.90241986-.32869816h-1.2838256Z"/>
          <path d="M277.17019801,34.34047022c.44286573.1678935.88871624.43055354,1.33717843.78686085l-.55031757.56561454c-.37682763-.28541894-.74395474-.49435307-1.10026205-.62680239-.35668041-.13207622-.76932531-.19848742-1.23756162-.19848742-.59098511,0-1.14391436.15781989-1.65804155.47383276-.51487339.31563977-.93274165.81745478-1.25360477,1.50507192s-.48129469,1.55655926-.48129469,2.60570707c0,1.55879784.29549255,2.72547109.88647766,3.49964666s1.41590182,1.1614499,2.47586943,1.1614499c.8148431,0,1.54835114-.18356356,2.2005241-.55031757v-3.71343105h-2.04792756l-.10707874-.76410196h3.05640783v4.95136576c-.97788634.57046479-2.02740725.85588374-3.14818961.85588374-.86558425,0-1.6196126-.20371078-2.26171195-.61150542-.64172625-.40742155-1.13831791-1.01855388-1.48977496-1.83377008-.35145705-.8148431-.52718558-1.81324976-.52718558-2.99521998,0-1.14092958.20371078-2.11657735.61113233-2.92657019s.94244216-1.4185135,1.60468873-1.82630815c.66224657-.40742155,1.37038403-.61113233,2.12403928-.61113233.60143181,0,1.12339404.08394675,1.56663287.25221334Z"/>
        </g>
      </g>
    </g>
  </g>
</svg>